<?xml version="1.0" standalone="no"?>
<!DOCTYPE svg PUBLIC "-//W3C//DTD SVG 20010904//EN"
 "http://www.w3.org/TR/2001/REC-SVG-20010904/DTD/svg10.dtd">
<svg version="1.0" xmlns="http://www.w3.org/2000/svg"
 width="1024.000000pt" height="1024.000000pt" viewBox="0 0 1024.000000 1024.000000"
 preserveAspectRatio="xMidYMid meet">

<g transform="translate(0.000000,1024.000000) scale(0.100000,-0.100000)"
fill="#000000" stroke="none">
<path d="M5000 9383 c-1250 -36 -2425 -620 -3205 -1593 -533 -666 -849 -1457
-925 -2315 -15 -167 -15 -543 0 -710 104 -1176 670 -2241 1580 -2970 666 -533
1457 -849 2315 -925 167 -15 543 -15 710 0 858 76 1649 392 2315 925 767 615
1305 1491 1504 2450 62 299 88 557 88 875 0 124 -6 284 -12 355 -76 858 -392
1649 -925 2315 -615 767 -1491 1305 -2450 1504 -314 65 -685 98 -995 89z m550
-198 c892 -100 1709 -473 2353 -1074 727 -679 1166 -1556 1283 -2566 13 -108
18 -228 18 -425 0 -197 -5 -317 -18 -425 -105 -908 -472 -1713 -1075 -2358
-679 -727 -1556 -1166 -2566 -1283 -207 -24 -643 -24 -850 0 -1010 117 -1887
556 -2566 1283 -603 645 -970 1450 -1075 2358 -24 207 -24 643 0 850 117 1010
556 1887 1283 2566 683 638 1560 1018 2512 1089 157 12 535 4 701 -15z"/>
<path d="M3382 6783 c-24 -5 -77 -53 -130 -121 -29 -37 -38 -42 -73 -42 -25 0
-64 13 -109 35 -94 48 -167 65 -272 65 -132 0 -212 -20 -343 -87 -265 -135
-498 -504 -587 -928 -20 -95 -23 -138 -23 -315 1 -170 4 -224 23 -316 60 -300
180 -506 366 -626 139 -90 363 -122 551 -78 188 43 378 162 556 348 113 117
185 222 269 390 74 149 93 164 149 116 41 -34 40 -68 -5 -219 -48 -161 -56
-283 -24 -368 65 -171 218 -218 405 -124 35 17 84 54 116 88 31 33 66 59 76
59 14 0 29 -17 48 -52 62 -118 173 -198 303 -219 139 -23 275 26 419 151 45
38 86 70 92 70 6 0 22 -22 36 -50 59 -116 149 -174 270 -174 90 0 147 26 228
106 79 78 99 77 145 -7 43 -78 85 -108 162 -113 104 -8 200 53 312 197 86 111
105 116 142 43 59 -116 193 -178 323 -152 78 16 157 59 238 131 56 50 72 60
98 57 31 -3 34 -6 92 -100 11 -18 36 -43 55 -56 30 -20 44 -23 96 -20 74 5
129 37 174 101 58 83 58 84 70 67 13 -20 13 -152 -1 -265 -16 -136 -7 -131
-237 -115 -223 15 -342 9 -445 -23 -188 -60 -315 -211 -325 -388 -7 -127 41
-230 147 -309 120 -90 271 -112 452 -66 284 73 499 269 593 540 l21 59 91 46
c190 96 302 214 423 444 55 106 63 149 34 197 -23 39 -53 51 -97 39 -30 -8
-42 -21 -77 -82 -23 -40 -58 -96 -78 -126 -45 -68 -188 -221 -207 -221 -9 0
-14 11 -14 28 0 41 55 513 120 1040 12 96 19 189 16 207 -9 44 -66 95 -107 95
-97 0 -131 -68 -195 -393 -48 -245 -92 -361 -168 -442 -57 -60 -123 -58 -160
5 -19 31 -21 50 -19 165 1 140 16 226 63 381 17 53 30 117 30 143 0 140 -160
191 -243 79 -48 -66 -75 -167 -116 -437 -11 -70 -30 -154 -42 -187 -45 -121
-169 -278 -245 -310 -32 -14 -39 -13 -72 3 -23 11 -44 32 -54 53 -35 71 -48
270 -27 400 11 68 52 197 164 515 79 224 117 350 153 500 22 94 26 134 26 275
1 158 0 167 -24 209 -32 57 -67 82 -123 88 -51 6 -110 -18 -160 -65 -63 -58
-120 -218 -162 -447 -35 -193 -94 -577 -125 -825 -11 -91 -30 -199 -41 -240
-25 -92 -166 -385 -210 -434 -27 -32 -37 -37 -68 -34 -31 3 -39 9 -56 43 -32
63 -26 226 14 445 18 96 50 274 71 395 22 121 51 281 65 355 69 361 76 407 78
530 2 99 -2 135 -16 171 -25 64 -65 100 -121 106 -60 7 -107 -22 -157 -99 -95
-148 -171 -472 -204 -872 -10 -132 -18 -183 -30 -196 -12 -13 -38 -19 -105
-22 -104 -6 -186 -39 -262 -107 -85 -76 -122 -143 -218 -393 -114 -296 -339
-497 -477 -425 -78 42 -140 179 -104 235 4 8 43 20 86 27 102 18 177 56 246
125 95 94 142 214 142 361 1 280 -217 412 -473 287 -146 -71 -223 -195 -289
-465 -22 -89 -54 -192 -71 -228 -66 -138 -164 -204 -206 -140 -22 34 -16 85
32 259 35 130 37 139 25 192 -26 113 -116 174 -258 174 -55 0 -64 3 -79 24
-13 21 -14 33 -4 80 13 65 3 96 -43 130 -67 50 -170 9 -222 -86 -30 -55 -34
-98 -21 -198 11 -75 -15 -141 -114 -289 -236 -351 -510 -508 -781 -447 -237
53 -365 247 -385 589 -15 235 47 542 152 749 129 257 292 378 489 366 114 -8
180 -55 205 -148 14 -52 9 -94 -30 -230 -34 -118 -37 -178 -11 -236 25 -55 64
-84 113 -84 96 0 167 84 198 236 22 107 91 297 148 409 109 215 112 223 112
271 0 61 -31 111 -84 135 -41 19 -52 20 -94 12z m1437 -1309 c29 -36 27 -89
-6 -171 -36 -91 -115 -173 -166 -173 -23 0 -37 6 -41 16 -25 66 34 245 107
322 39 40 77 43 106 6z m937 -108 c19 -14 20 -24 19 -243 -1 -254 -3 -262 -74
-336 -48 -51 -100 -77 -155 -77 -71 0 -104 50 -121 188 -18 140 48 340 138
417 63 54 154 78 193 51z m1712 -1333 c85 -7 87 -12 36 -89 -76 -114 -219
-209 -360 -239 -123 -26 -194 -13 -255 45 -34 32 -39 43 -39 82 0 95 85 175
219 205 55 12 227 11 399 -4z"/>
</g>
</svg>
